<svg xmlns="http://www.w3.org/2000/svg" width="59.286" height="56.742" viewBox="0 0 59.286 56.742">
  <g id="noun_grass_fed_cow_2748456" data-name="noun_grass fed cow_2748456" transform="translate(0 0)">
    <g id="Group_1" data-name="Group 1" transform="translate(0 0)">
      <path id="Path_1" data-name="Path 1" d="M20.953,125.18c2.406-1.426,7.779-.957,11.6-.295l1.045,9.493a1.32,1.32,0,0,0,1.3,1.176h.013a1.319,1.319,0,0,0,1.309-1.15l1.241-9.577c.616-.943,2.549-.105,4.508.567l.458,2.482c2.047-.688,3.8-.989,4.625-.255,2.652,2.347,2.527,4.356,3.165,5.241s3.149,1.213,3.162-1.013c.01-1.685,1.721-5.41,2.237-7.868.96.137,1.619.512,1.644-.007.023-.488-.612-.93-1.5-1.1a2.081,2.081,0,0,0-.077-.655c.567-.6.831-1.022.493-1.366-.292-.3-.885-.22-1.5.141-1.788-1.427-7.857-10.346-8.865-11.1l-1.165,3.149-.711-4.252c-2.207-2.207-10.442-2.657-11.145-2.593,0,0-9.475-.254-15.889-.883-4.147-.407-8.223,1.487-10.819,1.99a6.344,6.344,0,0,0-3.708.9c-.707.377-1.037,1.085-1.226,2.264l-.423,9.474c-.426.136-.736.655-.722,2.068.017,1.693.491,4.026,1.048,4.021s.985-2.348.968-4.04c-.013-1.351-.306-1.878-.707-2.034a50.85,50.85,0,0,1,1.031-8.86l1.372-1.029a52.014,52.014,0,0,0,.793,7.991L2.613,125a1.312,1.312,0,0,0,.007.716l2.73,9.387a1.321,1.321,0,0,0,1.267.952,1.284,1.284,0,0,0,.208-.017A1.32,1.32,0,0,0,7.938,134.7l-.19-6.073,3.886,6.772a1.32,1.32,0,0,0,2.409-1.038l-2.322-7.694.667-.891C15.464,126.365,18.793,126.46,20.953,125.18Zm31.146-.332A.818.818,0,1,1,52.047,126,.818.818,0,0,1,52.1,124.848Z" transform="translate(-0.001 -87.838)" fill="#deb841"/>
      <path id="Path_2" data-name="Path 2" d="M64.716,276.108c0-.11-.181-.11-.181-.219s.112-.11.112-.219.724-.11.724-.22-.332-.1-.409-.183-.07-.02-.178-.02-.108.361-.215.361-.107-.484-.215-.484-.107.2-.214.2-.107-.3-.213-.3-.107.765-.214.765-.107-.234-.214-.234-.107-.5-.214-.5-.107.29-.213.29-.107-.572-.213-.572-.107.421-.214.421-.106-.181-.213-.181-.106.774-.212.774-.106-1.028-.213-1.028-.107.561-.213.561a.112.112,0,0,0-.093.06,11.843,11.843,0,0,1,.771-2.956,6.443,6.443,0,0,0-1.308,2.359s0,0-.008,0c-.107,0-.107.439-.213.439s-.106-.149-.213-.149-.106.629-.213.629-.106-.777-.213-.777-.107-.08-.213-.08-.107.884-.213.884a.1.1,0,0,1-.08-.051,14.791,14.791,0,0,1,1.1-5.069,9.818,9.818,0,0,0-2.247,5.062c-.014.027-.031.045-.052.045-.106,0-.106-.171-.213-.171s-.106-.194-.213-.194-.106-.325-.212-.325c-.038,0-.063.052-.083.117a7.512,7.512,0,0,0-1.574-2.936,14.072,14.072,0,0,1,.793,2.743c-.09.076-.1.791-.2.791s-.106-.333-.213-.333-.106.17-.213.17-.106-.768-.213-.768c-.048,0-.074.088-.1.186a7.741,7.741,0,0,0-1.681-3.314,12.975,12.975,0,0,1,.916,3.841c-.09-.016-.1-.163-.2-.163s-.106-.422-.211-.422-.106.355-.211.355a.038.038,0,0,0-.022.009,9.644,9.644,0,0,0-2.178-4.691,15.688,15.688,0,0,1,1.089,4.468c-.055.023-.074.075-.157.075-.106,0-.106-.157-.212-.157s-.106.419-.2.449a6.867,6.867,0,0,0-1.5-3.016,11.486,11.486,0,0,1,.8,3.256c-.056-.116-.074-.392-.158-.392-.106,0-.106-.59-.212-.59s-.106.084-.212.084-.106.834-.212.834-.106-.852-.212-.852-.106.139-.212.139-.106.643-.212.643-.106-.225-.212-.225-.106-.221-.212-.221-.106.13-.212.13-.106.524-.213.524-.106-1.047-.213-1.047-.106.314-.212.314-.106.43-.212.43-.106-.468-.212-.468-.106.092-.212.092-.106-.214-.212-.214-.106-.151-.212-.151-.106.7-.212.7-.106.294-.212.294-.106-.409-.212-.409-.106-.543-.212-.543-.106.735-.212.735-.106-.481-.212-.481-.106.47-.212.47S47.046,275,46.94,275s-.106.118-.212.118-.106.6-.212.6-.106-1.02-.212-1.02-.106,1.068-.213,1.068-.106-.022-.212-.022-.106-.945-.212-.945-.106.735-.212.735-.106.13-.212.13-.106-.523-.212-.523-.106.039-.212.039-.106.292-.212.292-.106-.476-.212-.476-.106.778-.212.778-.106-.954-.212-.954-.106.944-.212.944-.106-.12-.212-.12-.106,0-.212,0-.106-.809-.212-.809-.106.3-.212.3-.106.442-.212.442-.106-.246-.212-.246-.106-.583-.212-.583-.106.08-.212.08-.106.032-.212.032-.106-.107-.212-.107-.106.1-.212.1-.106.209-.212.209-.106.034-.212.034-.106-.079-.212-.079-.106.47-.212.47-.106-.808-.212-.808-.106.985-.212.985-.106-.687-.212-.687-.106-.039-.212-.039-.106.775-.212.775-.106-.811-.212-.811-.106.575-.212.575-.106-.3-.212-.3-.106-.3-.212-.3-.106.073-.211.073-.106.292-.211.292-.106.189-.211.189-.106.363-.211.363-.106-.147-.211-.147-.106-.839-.211-.839-.106.574-.211.574-.106-.019-.211-.019-.106.231-.211.231-.106-.838-.211-.838-.105.092-.211.092-.105.373-.211.373-.105-.314-.211-.314-.105.578-.211.578-.106.228-.211.228-.106-.608-.211-.608-.106-.2-.211-.2-.106.145-.211.145-.106.246-.211.246-.106-.164-.211-.164-.106-.129-.211-.129-.106.77-.211.77-.106-.618-.211-.618-.106.57-.211.57-.106.032-.211.032-.106-.195-.212-.195-.106-.422-.212-.422-.106-.287-.212-.287-.106.91-.212.91-.106-.541-.212-.541-.106.3-.212.3-.106-.265-.212-.265-.106-.508-.212-.508-.106.631-.212.631-.106-.112-.212-.112-.106-.227-.212-.227-.106.149-.212.149-.106-.271-.212-.271-.106.73-.211.73-.106-.718-.211-.718-.106.4-.211.4-.106.059-.211.059-.106-.489-.211-.489-.105.613-.211.613-.105.149-.211.149-.105-.949-.211-.949-.105,1.007-.211,1.007-.105-.776-.211-.776-.105.756-.211.756-.105-.512-.211-.512-.105.116-.211.116-.105-.617-.211-.617-.105.49-.211.49-.105.293-.21.293-.105.269-.21.269-.105-.5-.21-.5-.105-.471-.21-.471-.105.158-.21.158-.105.37-.21.37-.105-.188-.21-.188-.105.433-.21.433-.105-.682-.21-.682-.105.124-.21.124-.105.559-.21.559-.105.215-.21.215-.105-.408-.21-.408-.105-.687-.21-.687-.105,1.077-.21,1.077-.105-.135-.21-.135-.105-.577-.21-.577-.105-.256-.21-.256-.105-.044-.21-.044-.105.047-.21.047-.105.045-.21.045-.105.3-.21.3-.105-.174-.21-.174-.105.818-.21.818-.105-1.068-.21-1.068-.105.66-.21.66-.105-.21-.21-.21-.105.378-.211.378-.105-.765-.211-.765-.105.674-.211.674-.105-.381-.211-.381-.105.416-.211.416-.105-.073-.211-.073-.105-.427-.211-.427-.105-.126-.211-.126-.105.482-.211.482-.105-.064-.211-.064-.105.264-.211.264-.106-.766-.211-.766-.106.389-.211.389-.106.411-.211.411-.106.01-.211.01-.106-.542-.211-.542-.106-.074-.212-.074-.106.7-.212.7-.106-.935-.212-.935-.106.973-.212.973-.106.024-.212.024-.106-.392-.212-.392-.106-.585-.212-.585-.106.682-.212.682-.106-.761-.212-.761-.106.9-.211.9-.106.031-.211.031-.106.1-.211.1-.106-.032-.211-.032-.106-.733-.211-.733-.106.809-.211.809-.106.021-.211.021-.106-.008-.211-.008-.106-.586-.211-.586-.106-.12-.211-.12-.106.027-.211.027-.106-.257-.211-.257-.106.969-.211.969-.106-.119-.211-.119-.106-.271-.211-.271-.106-.248-.211-.248-.106-.3-.211-.3-.106-.1-.211-.1-.106.57-.211.57-.106.408-.211.408-.106-.571-.211-.571-.106.077-.211.077-.106.431-.211.431-.106-.976-.211-.976-.106.492-.211.492-.106.179-.211.179-.106-.556-.211-.556-.106.935-.211.935-.106-.776-.211-.776-.106.828-.211.828-.106,0-.211,0-.106-.375-.211-.375-.106-.319-.211-.319-.106.125-.211.125-.106-.033-.211-.033-.106-.272-.211-.272-.106.1-.211.1-.106.075-.211.075-.106-.154-.211-.154-.106.209-.211.209-.257-.116-.33-.039.649.224.649.334-.052.111-.052.221-1.006.11-1.006.221,0,.11,0,.22.78.11.78.219-.754.11-.754.219.346.11.346.22-.122.335-.045.414.233-.159.351-.236v1.123H65.153v-1.653c.142-.023.26-.049.26-.092C65.412,276.218,64.716,276.218,64.716,276.108Z" transform="translate(-6.127 -225.814)" fill="#deb841"/>
      <path id="Path_3" data-name="Path 3" d="M282.229,21.763c.776-.679,2.031-.117,2.481.15.264-.451,1.091-1.55,2.1-1.332-1.073-1.207-2.278.636-2.278.636S282.584,20.187,282.229,21.763Z" transform="translate(-235.516 -16.833)" fill="#deb841"/>
      <path id="Path_4" data-name="Path 4" d="M310.244,33.808c.776-.679,2.031-.117,2.481.15.264-.451,1.091-1.55,2.1-1.332-1.073-1.208-2.278.636-2.278.636S310.6,32.232,310.244,33.808Z" transform="translate(-258.894 -26.884)" fill="#deb841"/>
      <path id="Path_5" data-name="Path 5" d="M317.027,1.046s-1.947-1.03-2.3.546c.776-.679,2.031-.117,2.481.15.264-.451,1.09-1.551,2.1-1.332C318.233-.8,317.027,1.046,317.027,1.046Z" transform="translate(-262.634 0)" fill="#deb841"/>
      <path id="Path_6" data-name="Path 6" d="M177.453,31.906a1.53,1.53,0,0,1,.55-.725,3.2,3.2,0,1,1,3.906-3.968,3.9,3.9,0,0,0-1.064,1.312,2.6,2.6,0,0,1,2.055,1.135,2.6,2.6,0,0,0-4.329,1.27,1.528,1.528,0,0,1,1.847,1.494,1.547,1.547,0,0,1-.008.155,1.528,1.528,0,0,0-3.041,0,1.547,1.547,0,0,0-.008.155,1.527,1.527,0,0,0,2.564,1.122,2.593,2.593,0,0,0,2.613-.152,3.863,3.863,0,0,0,1.783.434c.055,0,.11,0,.165,0a3.882,3.882,0,0,0,0-7.757c-.055,0-.11,0-.165,0a3.868,3.868,0,0,0-1.662.373,4.055,4.055,0,1,0-5.206,5.161Z" transform="translate(-145.85 -20.059)" fill="#deb841"/>
      <path id="Path_7" data-name="Path 7" d="M295.8,79.993a2.571,2.571,0,0,1-.484,3.08,2.573,2.573,0,1,0-4.629-2.051,1.531,1.531,0,0,0-.2-.015,1.512,1.512,0,1,0,1.054,2.595,2.57,2.57,0,0,0,3.252.035,2.122,2.122,0,1,0,1.009-3.644Z" transform="translate(-241.144 -65.967)" fill="#deb841"/>
      <path id="Path_8" data-name="Path 8" d="M248.216,62.661a2.147,2.147,0,1,0,1.622-3.554l-.043,0a3.881,3.881,0,0,1-1.579,3.552Z" transform="translate(-207.133 -49.324)" fill="#deb841"/>
    </g>
    <text id="Created_by_Gan_Khoon_Lay" data-name="Created by Gan Khoon Lay" transform="translate(0 54.914)" fill="#deb841" font-size="1" font-family="HelveticaNeue-Bold, Helvetica Neue" font-weight="700"><tspan x="0" y="0">Created by Gan Khoon Lay</tspan></text>
    <text id="from_the_Noun_Project" data-name="from the Noun Project" transform="translate(0 55.742)" fill="#deb841" font-size="1" font-family="HelveticaNeue-Bold, Helvetica Neue" font-weight="700"><tspan x="0" y="0">from the Noun Project</tspan></text>
  </g>
</svg>
