<svg xmlns="http://www.w3.org/2000/svg" width="95.1" height="75.9" viewBox="0 0 95.1 75.9">
  <g id="noun_Burger_1294185" transform="translate(14.5 1.9)">
    <g id="Group_2" data-name="Group 2" transform="translate(-17 -14)">
      <path id="Path_9" data-name="Path 9" d="M5.8,51.3H94.2a3.3,3.3,0,1,0,0-6.6H5.8a3.3,3.3,0,1,0,0,6.6Z" fill="#deb841"/>
      <path id="Path_10" data-name="Path 10" d="M94.2,54.7H72.3l-6.4,5.9a6.022,6.022,0,0,1-6.4,1.2L41.6,54.7H5.8A3.329,3.329,0,0,0,2.5,58v4.3a3.329,3.329,0,0,0,3.3,3.3H94.2a3.329,3.329,0,0,0,3.3-3.3V58A3.329,3.329,0,0,0,94.2,54.7Z" fill="#deb841"/>
      <path id="Path_11" data-name="Path 11" d="M94.2,69H5.8a3.329,3.329,0,0,0-3.3,3.3A15.727,15.727,0,0,0,18.2,88H81.9A15.727,15.727,0,0,0,97.6,72.3,3.487,3.487,0,0,0,94.2,69Z" fill="#deb841"/>
      <path id="Path_12" data-name="Path 12" d="M6.2,41.3H93.8c2,0,3.4-2.2,2.8-4.3C94,28.9,84.6,12.1,50,12.1S6,28.9,3.4,37C2.8,39.1,4.2,41.3,6.2,41.3ZM81.4,29.9a2.7,2.7,0,1,1-2.7,2.7A2.689,2.689,0,0,1,81.4,29.9ZM69.7,20.2a2.7,2.7,0,0,1,0,5.4A2.754,2.754,0,0,1,67,22.9,2.689,2.689,0,0,1,69.7,20.2Zm-7.5,9.9a2.7,2.7,0,1,1-2.7,2.7A2.689,2.689,0,0,1,62.2,30.1Zm-11.4-11a2.7,2.7,0,1,1-2.7,2.7A2.689,2.689,0,0,1,50.8,19.1Zm-8.7,11a2.7,2.7,0,1,1-2.7,2.7A2.689,2.689,0,0,1,42.1,30.1ZM31,21.2a2.7,2.7,0,1,1-2.7,2.7A2.825,2.825,0,0,1,31,21.2ZM19.1,30.7a2.689,2.689,0,0,1,2.7,2.7A2.606,2.606,0,0,1,19.1,36a2.689,2.689,0,0,1-2.7-2.7A2.606,2.606,0,0,1,19.1,30.7Z" fill="#deb841"/>
    </g>
  </g>
</svg>
