<svg xmlns="http://www.w3.org/2000/svg" width="31.967" height="31.966" viewBox="0 0 31.967 31.966">
  <path id="pepper-hot-solid" d="M20.646,16.448v-5.6L17.352,9.334C13.7,13.679,12.336,24.995,3.5,24.995a3.5,3.5,0,0,0,0,6.993c13.277,0,23.142-7.672,26.172-13.133l-2.313-2.406Zm8.185-8.015c2.008-3.736.963-6.76-.2-8.226A.5.5,0,0,0,27.89.17L26.46,1.606a.5.5,0,0,0-.056.639c.428.647,1.065,2.192-.087,4.515a8.818,8.818,0,0,0-8.335.664l4.662,2.141V14.45h5.562L31.62,18a9.754,9.754,0,0,0,.347-2.454,9.615,9.615,0,0,0-3.137-7.114Z" transform="translate(0 -0.021)" fill="#deb841"/>
</svg>
